{
  "accessors": [
    {
      "bufferView": 2,
      "componentType": 5126,
      "count": 465,
      "max": [
        0.9660274386405945,
        0.9684208631515503,
        1.389896273612976
      ],
      "min": [
        -0.9726602435112,
        -0.9709803462028503,
        -0.010316088795661926
      ],
      "type": "VEC3"
    },
    {
      "bufferView": 2,
      "byteOffset": 5580,
      "componentType": 5126,
      "count": 465,
      "max": [
        0.9979586005210876,
        0.9972145557403564,
        0.9999998807907104
      ],
      "min": [
        -0.9953262805938721,
        -0.9961919784545898,
        -0.9917648434638977
      ],
      "type": "VEC3"
    },
    {
      "bufferView": 1,
      "componentType": 5126,
      "count": 465,
      "max": [
        0.5772099494934082,
        0.9998917579650879
      ],
      "min": [
        0.007490598130971193,
        0.00010823488264577463
      ],
      "type": "VEC2"
    },
    {
      "bufferView": 0,
      "componentType": 5125,
      "count": 2310,
      "type": "SCALAR"
    }
  ],
  "asset": {
    "extras": {
      "author": "Aki_Kato (https://sketchfab.com/Aki_Kato)",
      "license": "CC-BY-SA-4.0 (http://creativecommons.org/licenses/by-sa/4.0/)",
      "source": "https://sketchfab.com/3d-models/slime-c3fcd9b4f9be409594e590c44df185d5",
      "title": "Slime"
    },
    "generator": "Sketchfab-12.67.0",
    "version": "2.0"
  },
  "bufferViews": [
    {
      "buffer": 0,
      "byteLength": 9240,
      "name": "floatBufferViews",
      "target": 34963
    },
    {
      "buffer": 0,
      "byteLength": 3720,
      "byteOffset": 9240,
      "byteStride": 8,
      "name": "floatBufferViews",
      "target": 34962
    },
    {
      "buffer": 0,
      "byteLength": 11160,
      "byteOffset": 12960,
      "byteStride": 12,
      "name": "floatBufferViews",
      "target": 34962
    }
  ],
  "buffers": [
    {
      "byteLength": 24120,
      "uri": "scene.bin"
    }
  ],
  "images": [
    {
      "uri": "textures/Slime_baseColor.png"
    }
  ],
  "materials": [
    {
      "alphaCutoff": 0.4151618238087421,
      "alphaMode": "MASK",
      "doubleSided": true,
      "name": "Slime",
      "pbrMetallicRoughness": {
        "baseColorTexture": {
          "index": 0
        },
        "metallicFactor": 0.0,
        "roughnessFactor": 0.6
      }
    }
  ],
  "meshes": [
    {
      "name": "Slime_Slime_0",
      "primitives": [
        {
          "attributes": {
            "NORMAL": 1,
            "POSITION": 0,
            "TEXCOORD_0": 2
          },
          "indices": 3,
          "material": 0,
          "mode": 4
        }
      ]
    }
  ],
  "nodes": [
    {
      "children": [
        1
      ],
      "matrix": [
        0.005299732089042664,
        0.0,
        0.0,
        0.0,
        0.0,
        1.176776917919989e-18,
        -0.005299732089042664,
        0.0,
        0.0,
        0.005299732089042664,
        1.176776917919989e-18,
        0.0,
        0.0,
        0.0,
        0.0,
        1.0
      ],
      "name": "Sketchfab_model"
    },
    {
      "children": [
        2
      ],
      "matrix": [
        1.0,
        0.0,
        0.0,
        0.0,
        0.0,
        0.0,
        1.0,
        0.0,
        0.0,
        -1.0,
        0.0,
        0.0,
        0.0,
        0.0,
        0.0,
        1.0
      ],
      "name": "6f2f1dfcc84e40fbad62eb4e6402d09f.fbx"
    },
    {
      "children": [
        3
      ],
      "name": "RootNode"
    },
    {
      "children": [
        4
      ],
      "matrix": [
        100.0,
        0.0,
        0.0,
        0.0,
        0.0,
        -1.629206793918314e-05,
        -99.99999999999868,
        0.0,
        0.0,
        99.99999999999868,
        -1.629206793918314e-05,
        0.0,
        0.0,
        0.0,
        0.0,
        1.0
      ],
      "name": "Slime"
    },
    {
      "mesh": 0,
      "name": "Slime_Slime_0"
    }
  ],
  "samplers": [
    {
      "magFilter": 9729,
      "minFilter": 9987,
      "wrapS": 10497,
      "wrapT": 10497
    }
  ],
  "scene": 0,
  "scenes": [
    {
      "name": "Sketchfab_Scene",
      "nodes": [
        0
      ]
    }
  ],
  "textures": [
    {
      "sampler": 0,
      "source": 0
    }
  ]
}
